<svg width="94" height="66" viewBox="0 0 94 66" fill="none" xmlns="http://www.w3.org/2000/svg">
<path d="M94 8C94 5.87827 93.1571 3.84344 91.6569 2.34315C90.1566 0.842856 88.1217 0 86 0H56.4L55.6 0.200001L47 4L38.4 0.200001L37.6 0H8C5.87827 0 3.84344 0.842856 2.34315 2.34315C0.842855 3.84344 0 5.87827 0 8V53.2C0 55.3217 0.842855 57.3566 2.34315 58.8569C3.84344 60.3571 5.87827 61.2 8 61.2H37.2L46.2 65.2L47 65.4L47.8 65.2L56.8 61.2H86C88.1217 61.2 90.1566 60.3571 91.6569 58.8569C93.1571 57.3566 94 55.3217 94 53.2V8ZM37.6 57.2H8C6.93913 57.2 5.92172 56.7786 5.17157 56.0284C4.42143 55.2783 4 54.2609 4 53.2V8C4 6.93913 4.42143 5.92172 5.17157 5.17157C5.92172 4.42143 6.93913 4 8 4H37.2L45 7.5V60.3L38.4 57.4L37.6 57.2ZM90 53.2C90 54.2609 89.5786 55.2783 88.8284 56.0284C88.0783 56.7786 87.0609 57.2 86 57.2H56.4L55.6 57.4L49 60.3V7.5L56.8 4H86C87.0609 4 88.0783 4.42143 88.8284 5.17157C89.5786 5.92172 90 6.93913 90 8V53.2Z" fill="#FFC874"/>
<path d="M60.4 19.5H72.4C72.9304 19.5 73.4391 19.2893 73.8142 18.9142C74.1893 18.5391 74.4 18.0304 74.4 17.5C74.4 16.9696 74.1893 16.4609 73.8142 16.0858C73.4391 15.7107 72.9304 15.5 72.4 15.5H60.4C59.8696 15.5 59.3609 15.7107 58.9858 16.0858C58.6107 16.4609 58.4 16.9696 58.4 17.5C58.4 18.0304 58.6107 18.5391 58.9858 18.9142C59.3609 19.2893 59.8696 19.5 60.4 19.5Z" fill="#FFC874"/>
<path d="M79.6 27H60.4C59.8696 27 59.3609 27.2107 58.9858 27.5858C58.6107 27.9609 58.4 28.4696 58.4 29C58.4 29.5304 58.6107 30.0391 58.9858 30.4142C59.3609 30.7893 59.8696 31 60.4 31H79.6C80.1304 31 80.6391 30.7893 81.0142 30.4142C81.3893 30.0391 81.6 29.5304 81.6 29C81.6 28.4696 81.3893 27.9609 81.0142 27.5858C80.6391 27.2107 80.1304 27 79.6 27Z" fill="#FFC874"/>
<path d="M79.6 38.5H60.4C59.8696 38.5 59.3609 38.7107 58.9858 39.0858C58.6107 39.4609 58.4 39.9696 58.4 40.5C58.4 41.0304 58.6107 41.5391 58.9858 41.9142C59.3609 42.2893 59.8696 42.5 60.4 42.5H79.6C80.1304 42.5 80.6391 42.2893 81.0142 41.9142C81.3893 41.5391 81.6 41.0304 81.6 40.5C81.6 39.9696 81.3893 39.4609 81.0142 39.0858C80.6391 38.7107 80.1304 38.5 79.6 38.5Z" fill="#FFC874"/>
<path d="M29.6652 42.2877C28.2701 42.2877 26.9754 41.7777 25.8705 40.9098C25.3571 40.5084 24.6317 40.5084 24.1183 40.9098C23.0134 41.7777 21.7187 42.2877 20.3237 42.2877C16.0491 42.2877 12.7902 37.7201 12.7902 32.2845C12.7902 26.849 16.0491 22.2814 20.3237 22.2814C21.7187 22.2814 23.0134 22.7913 24.1183 23.6593C24.6317 24.0607 25.3571 24.0607 25.8705 23.6593C26.9754 22.7913 28.2701 22.2814 29.6652 22.2814C33.9397 22.2814 37.1987 26.849 37.1987 32.2845C37.1987 37.7201 33.9397 42.2877 29.6652 42.2877ZM29.6652 19.569C28.6942 19.569 27.7455 19.7318 26.8527 20.0464C26.9643 19.6233 27.1094 19.2002 27.2879 18.7987C27.7009 17.8657 28.2924 17.0194 29.2188 16.5746C29.9107 16.2383 30.1897 15.4246 29.8438 14.7519C29.4978 14.0793 28.6607 13.808 27.9688 14.1443C25.6138 15.2835 24.4308 17.8874 23.9174 20.361C22.7902 19.8511 21.5848 19.569 20.3237 19.569C14.7433 19.569 10 25.1782 10 32.2845C10 39.3909 14.7545 45 20.346 45C22.0201 45 23.6049 44.5118 25.0112 43.633C26.4174 44.5118 28.0022 45 29.6763 45C35.2567 45 40 39.3909 40 32.2845C40 25.1782 35.2567 19.569 29.6652 19.569Z" fill="#FFC874"/>
<path d="M19.5606 25.4194L18.4194 26.5606C17.8602 27.1198 17.8602 28.0214 18.4194 28.5806C18.9786 29.1398 19.8802 29.1398 20.4394 28.5806L21.5806 27.4394C22.1398 26.8802 22.1398 25.9786 21.5806 25.4194C21.0214 24.8602 20.1198 24.8602 19.5606 25.4194Z" fill="#FFC874"/>
</svg>
